solid OpenSCAD_Model
  facet normal 0 0 -1
    outer loop
      vertex -6.59874 8.44986 0
      vertex -14.1183 3.78647 0
      vertex -13.5734 5.46352 0
    endloop
  endfacet
  facet normal 0 0 -1
    outer loop
      vertex -15 -3.5 0
      vertex -14.1183 3.78647 0
      vertex -13.5734 -4.53647 0
    endloop
  endfacet
  facet normal 0 0 -1
    outer loop
      vertex -15 -3.5 0
      vertex -15.8817 3.78647 0
      vertex -14.1183 3.78647 0
    endloop
  endfacet
  facet normal 0 0 -1
    outer loop
      vertex -16.4266 -4.53647 0
      vertex -15.8817 3.78647 0
      vertex -15 -3.5 0
    endloop
  endfacet
  facet normal 0 0 -1
    outer loop
      vertex -22.8019 7.36777 0
      vertex -15.8817 3.78647 0
      vertex -16.4266 -4.53647 0
    endloop
  endfacet
  facet normal 0 0 -1
    outer loop
      vertex -6.59874 -8.44986 0
      vertex -13.5734 -4.53647 0
      vertex -6.59874 8.44986 0
    endloop
  endfacet
  facet normal 0 0 -1
    outer loop
      vertex -6.59874 -8.44986 0
      vertex -14.1183 -6.21352 0
      vertex -13.5734 -4.53647 0
    endloop
  endfacet
  facet normal 0 0 -1
    outer loop
      vertex -21.445 -8.44986 0
      vertex -14.1183 -6.21352 0
      vertex -6.59874 -8.44986 0
    endloop
  endfacet
  facet normal 0 0 -1
    outer loop
      vertex -22.8019 -7.36777 0
      vertex -16.4266 -4.53647 0
      vertex -21.445 -8.44986 0
    endloop
  endfacet
  facet normal -0 0 -1
    outer loop
      vertex -15.8817 -6.21352 0
      vertex -21.445 -8.44986 0
      vertex -16.4266 -4.53647 0
    endloop
  endfacet
  facet normal -0 0 -1
    outer loop
      vertex -14.1183 -6.21352 0
      vertex -21.445 -8.44986 0
      vertex -15.8817 -6.21352 0
    endloop
  endfacet
  facet normal 0 0 -1
    outer loop
      vertex -6.59874 -8.44986 0
      vertex -4 -8.5 0
      vertex -6.59874 -8.5 0
    endloop
  endfacet
  facet normal 0 0 -1
    outer loop
      vertex -4 -8.5 0
      vertex -6.59874 -8.44986 0
      vertex -4 8.5 0
    endloop
  endfacet
  facet normal 0 0 -1
    outer loop
      vertex -6.59874 8.44986 0
      vertex -4 8.5 0
      vertex -6.59874 -8.44986 0
    endloop
  endfacet
  facet normal -0 0 -1
    outer loop
      vertex -4 8.5 0
      vertex -6.59874 8.44986 0
      vertex -6.59874 8.5 0
    endloop
  endfacet
  facet normal 0 0 -1
    outer loop
      vertex -14.1183 3.78647 0
      vertex -6.59874 8.44986 0
      vertex -13.5734 -4.53647 0
    endloop
  endfacet
  facet normal 0 0 -1
    outer loop
      vertex -15 6.5 0
      vertex -6.59874 8.44986 0
      vertex -13.5734 5.46352 0
    endloop
  endfacet
  facet normal 0 0 -1
    outer loop
      vertex -15 6.5 0
      vertex -21.445 8.44986 0
      vertex -6.59874 8.44986 0
    endloop
  endfacet
  facet normal 0 0 -1
    outer loop
      vertex -16.4266 5.46352 0
      vertex -21.445 8.44986 0
      vertex -15 6.5 0
    endloop
  endfacet
  facet normal 0 0 -1
    outer loop
      vertex -22.8019 7.36777 0
      vertex -16.4266 -4.53647 0
      vertex -22.8019 -7.36777 0
    endloop
  endfacet
  facet normal 0 0 -1
    outer loop
      vertex -15.8817 3.78647 0
      vertex -22.8019 7.36777 0
      vertex -16.4266 5.46352 0
    endloop
  endfacet
  facet normal 0 0 -1
    outer loop
      vertex -16.4266 5.46352 0
      vertex -22.8019 7.36777 0
      vertex -21.445 8.44986 0
    endloop
  endfacet
  facet normal 0 0 -1
    outer loop
      vertex 4 -8.5 0
      vertex 6.59874 -8.44986 0
      vertex 6.59874 -8.5 0
    endloop
  endfacet
  facet normal -0 0 -1
    outer loop
      vertex 6.59874 -8.44986 0
      vertex 4 -8.5 0
      vertex 6.59874 8.44986 0
    endloop
  endfacet
  facet normal 0 0 -1
    outer loop
      vertex 4 8.5 0
      vertex 6.59874 8.44986 0
      vertex 4 -8.5 0
    endloop
  endfacet
  facet normal 0 0 -1
    outer loop
      vertex 6.59874 8.44986 0
      vertex 4 8.5 0
      vertex 6.59874 8.5 0
    endloop
  endfacet
  facet normal 0 0 -1
    outer loop
      vertex 23 6.5 0
      vertex 15.8817 3.78647 0
      vertex 16.4266 5.46352 0
    endloop
  endfacet
  facet normal 0 0 -1
    outer loop
      vertex 15 -3.5 0
      vertex 15.8817 3.78647 0
      vertex 16.4266 -4.53647 0
    endloop
  endfacet
  facet normal 0 0 -1
    outer loop
      vertex 15 -3.5 0
      vertex 14.1183 3.78647 0
      vertex 15.8817 3.78647 0
    endloop
  endfacet
  facet normal 0 0 -1
    outer loop
      vertex 13.5734 -4.53647 0
      vertex 14.1183 3.78647 0
      vertex 15 -3.5 0
    endloop
  endfacet
  facet normal 0 0 -1
    outer loop
      vertex 6.59874 8.44986 0
      vertex 14.1183 3.78647 0
      vertex 13.5734 -4.53647 0
    endloop
  endfacet
  facet normal 0 0 -1
    outer loop
      vertex 20.555 -8.44986 0
      vertex 23 -6.5 0
      vertex 22.247 -8.06366 0
    endloop
  endfacet
  facet normal 0 0 -1
    outer loop
      vertex 23 -6.5 0
      vertex 16.4266 -4.53647 0
      vertex 23 6.5 0
    endloop
  endfacet
  facet normal -0 0 -1
    outer loop
      vertex 23 -6.5 0
      vertex 20.555 -8.44986 0
      vertex 16.4266 -4.53647 0
    endloop
  endfacet
  facet normal 0 0 -1
    outer loop
      vertex 15.8817 3.78647 0
      vertex 23 6.5 0
      vertex 16.4266 -4.53647 0
    endloop
  endfacet
  facet normal 0 -0 -1
    outer loop
      vertex 20.555 8.44986 0
      vertex 23 6.5 0
      vertex 16.4266 5.46352 0
    endloop
  endfacet
  facet normal 0 0 -1
    outer loop
      vertex 20.555 -8.44986 0
      vertex 15.8817 -6.21352 0
      vertex 16.4266 -4.53647 0
    endloop
  endfacet
  facet normal 0 0 -1
    outer loop
      vertex 20.555 -8.44986 0
      vertex 14.1183 -6.21352 0
      vertex 15.8817 -6.21352 0
    endloop
  endfacet
  facet normal 0 0 -1
    outer loop
      vertex 6.59874 8.44986 0
      vertex 13.5734 -4.53647 0
      vertex 6.59874 -8.44986 0
    endloop
  endfacet
  facet normal -0 0 -1
    outer loop
      vertex 14.1183 -6.21352 0
      vertex 6.59874 -8.44986 0
      vertex 13.5734 -4.53647 0
    endloop
  endfacet
  facet normal 0 0 -1
    outer loop
      vertex 6.59874 -8.44986 0
      vertex 14.1183 -6.21352 0
      vertex 20.555 -8.44986 0
    endloop
  endfacet
  facet normal 0 0 -1
    outer loop
      vertex 23 6.5 0
      vertex 20.555 8.44986 0
      vertex 22.247 8.06366 0
    endloop
  endfacet
  facet normal 0 0 -1
    outer loop
      vertex 15 6.5 0
      vertex 20.555 8.44986 0
      vertex 16.4266 5.46352 0
    endloop
  endfacet
  facet normal 0 0 -1
    outer loop
      vertex 15 6.5 0
      vertex 6.59874 8.44986 0
      vertex 20.555 8.44986 0
    endloop
  endfacet
  facet normal 0 0 -1
    outer loop
      vertex 13.5734 5.46352 0
      vertex 6.59874 8.44986 0
      vertex 15 6.5 0
    endloop
  endfacet
  facet normal 0 0 -1
    outer loop
      vertex 14.1183 3.78647 0
      vertex 6.59874 8.44986 0
      vertex 13.5734 5.46352 0
    endloop
  endfacet
  facet normal -0.62349 0.781831 0
    outer loop
      vertex -21.445 8.44986 0
      vertex -22.8019 7.36777 3.5
      vertex -21.445 8.44986 3.5
    endloop
  endfacet
  facet normal -0.62349 0.781831 0
    outer loop
      vertex -22.8019 7.36777 3.5
      vertex -21.445 8.44986 0
      vertex -22.8019 7.36777 0
    endloop
  endfacet
  facet normal -1 0 0
    outer loop
      vertex -22.8019 -7.36777 0
      vertex -22.8019 7.36777 3.5
      vertex -22.8019 7.36777 0
    endloop
  endfacet
  facet normal -1 -0 0
    outer loop
      vertex -22.8019 7.36777 3.5
      vertex -22.8019 -7.36777 0
      vertex -22.8019 -7.36777 3.5
    endloop
  endfacet
  facet normal -0.62349 -0.781831 0
    outer loop
      vertex -22.8019 -7.36777 0
      vertex -21.445 -8.44986 3.5
      vertex -22.8019 -7.36777 3.5
    endloop
  endfacet
  facet normal -0.62349 -0.781831 -0
    outer loop
      vertex -21.445 -8.44986 3.5
      vertex -22.8019 -7.36777 0
      vertex -21.445 -8.44986 0
    endloop
  endfacet
  facet normal 0 0 1
    outer loop
      vertex -7.5 8.44986 3.5
      vertex -14.1183 3.78647 3.5
      vertex -13.5734 -4.53647 3.5
    endloop
  endfacet
  facet normal 0 0 1
    outer loop
      vertex -14.1183 3.78647 3.5
      vertex -15 -3.5 3.5
      vertex -13.5734 -4.53647 3.5
    endloop
  endfacet
  facet normal -0 0 1
    outer loop
      vertex -15.8817 3.78647 3.5
      vertex -15 -3.5 3.5
      vertex -14.1183 3.78647 3.5
    endloop
  endfacet
  facet normal 0 0 1
    outer loop
      vertex -22.8019 7.36777 3.5
      vertex -15.8817 3.78647 3.5
      vertex -16.4266 5.46352 3.5
    endloop
  endfacet
  facet normal 0 0 1
    outer loop
      vertex -15.8817 3.78647 3.5
      vertex -16.4266 -4.53647 3.5
      vertex -15 -3.5 3.5
    endloop
  endfacet
  facet normal 0 0 1
    outer loop
      vertex -14.1183 3.78647 3.5
      vertex -7.5 8.44986 3.5
      vertex -13.5734 5.46352 3.5
    endloop
  endfacet
  facet normal 0 0 1
    outer loop
      vertex -7.5 8.44986 3.5
      vertex -15 6.5 3.5
      vertex -13.5734 5.46352 3.5
    endloop
  endfacet
  facet normal -0 0 1
    outer loop
      vertex -22.8019 7.36777 3.5
      vertex -16.4266 5.46352 3.5
      vertex -21.445 8.44986 3.5
    endloop
  endfacet
  facet normal 0 0 1
    outer loop
      vertex -15 6.5 3.5
      vertex -21.445 8.44986 3.5
      vertex -16.4266 5.46352 3.5
    endloop
  endfacet
  facet normal -0 0 1
    outer loop
      vertex -21.445 8.44986 3.5
      vertex -15 6.5 3.5
      vertex -7.5 8.44986 3.5
    endloop
  endfacet
  facet normal 0 0 1
    outer loop
      vertex -7.5 8.44986 3.5
      vertex -13.5734 -4.53647 3.5
      vertex -7.5 -8.44986 3.5
    endloop
  endfacet
  facet normal -0 0 1
    outer loop
      vertex -14.1183 -6.21352 3.5
      vertex -7.5 -8.44986 3.5
      vertex -13.5734 -4.53647 3.5
    endloop
  endfacet
  facet normal 0 0 1
    outer loop
      vertex -21.445 -8.44986 3.5
      vertex -14.1183 -6.21352 3.5
      vertex -15.8817 -6.21352 3.5
    endloop
  endfacet
  facet normal 0 0 1
    outer loop
      vertex -15.8817 3.78647 3.5
      vertex -22.8019 7.36777 3.5
      vertex -16.4266 -4.53647 3.5
    endloop
  endfacet
  facet normal 0 0 1
    outer loop
      vertex -14.1183 -6.21352 3.5
      vertex -21.445 -8.44986 3.5
      vertex -7.5 -8.44986 3.5
    endloop
  endfacet
  facet normal 0 0 1
    outer loop
      vertex -22.8019 -7.36777 3.5
      vertex -16.4266 -4.53647 3.5
      vertex -22.8019 7.36777 3.5
    endloop
  endfacet
  facet normal 0 -0 1
    outer loop
      vertex -21.445 -8.44986 3.5
      vertex -16.4266 -4.53647 3.5
      vertex -22.8019 -7.36777 3.5
    endloop
  endfacet
  facet normal 0 0 1
    outer loop
      vertex -16.4266 -4.53647 3.5
      vertex -21.445 -8.44986 3.5
      vertex -15.8817 -6.21352 3.5
    endloop
  endfacet
  facet normal 0 0 1
    outer loop
      vertex 23 6.5 3.5
      vertex 15.8817 3.78647 3.5
      vertex 16.4266 -4.53647 3.5
    endloop
  endfacet
  facet normal 0 0 1
    outer loop
      vertex 15.8817 3.78647 3.5
      vertex 15 -3.5 3.5
      vertex 16.4266 -4.53647 3.5
    endloop
  endfacet
  facet normal -0 0 1
    outer loop
      vertex 14.1183 3.78647 3.5
      vertex 15 -3.5 3.5
      vertex 15.8817 3.78647 3.5
    endloop
  endfacet
  facet normal 0 0 1
    outer loop
      vertex 7.5 8.44986 3.5
      vertex 14.1183 3.78647 3.5
      vertex 13.5734 5.46352 3.5
    endloop
  endfacet
  facet normal 0 0 1
    outer loop
      vertex 14.1183 3.78647 3.5
      vertex 13.5734 -4.53647 3.5
      vertex 15 -3.5 3.5
    endloop
  endfacet
  facet normal 0 0 1
    outer loop
      vertex 20.555 8.44986 3.5
      vertex 23 6.5 3.5
      vertex 22.247 8.06366 3.5
    endloop
  endfacet
  facet normal 0 0 1
    outer loop
      vertex 15.8817 3.78647 3.5
      vertex 23 6.5 3.5
      vertex 16.4266 5.46352 3.5
    endloop
  endfacet
  facet normal 0 0 1
    outer loop
      vertex 23 6.5 3.5
      vertex 20.555 8.44986 3.5
      vertex 16.4266 5.46352 3.5
    endloop
  endfacet
  facet normal 0 -0 1
    outer loop
      vertex 20.555 -8.44986 3.5
      vertex 23 -6.5 3.5
      vertex 16.4266 -4.53647 3.5
    endloop
  endfacet
  facet normal 0 0 1
    outer loop
      vertex 23 6.5 3.5
      vertex 16.4266 -4.53647 3.5
      vertex 23 -6.5 3.5
    endloop
  endfacet
  facet normal 0 0 1
    outer loop
      vertex 20.555 8.44986 3.5
      vertex 15 6.5 3.5
      vertex 16.4266 5.46352 3.5
    endloop
  endfacet
  facet normal 0 0 1
    outer loop
      vertex 14.1183 3.78647 3.5
      vertex 7.5 8.44986 3.5
      vertex 13.5734 -4.53647 3.5
    endloop
  endfacet
  facet normal 0 0 1
    outer loop
      vertex 15 6.5 3.5
      vertex 7.5 8.44986 3.5
      vertex 13.5734 5.46352 3.5
    endloop
  endfacet
  facet normal -0 0 1
    outer loop
      vertex 7.5 8.44986 3.5
      vertex 15 6.5 3.5
      vertex 20.555 8.44986 3.5
    endloop
  endfacet
  facet normal 0 0 1
    outer loop
      vertex 23 -6.5 3.5
      vertex 20.555 -8.44986 3.5
      vertex 22.247 -8.06366 3.5
    endloop
  endfacet
  facet normal -0 0 1
    outer loop
      vertex 15.8817 -6.21352 3.5
      vertex 20.555 -8.44986 3.5
      vertex 16.4266 -4.53647 3.5
    endloop
  endfacet
  facet normal -0 0 1
    outer loop
      vertex 14.1183 -6.21352 3.5
      vertex 20.555 -8.44986 3.5
      vertex 15.8817 -6.21352 3.5
    endloop
  endfacet
  facet normal 0 0 1
    outer loop
      vertex 7.5 -8.44986 3.5
      vertex 13.5734 -4.53647 3.5
      vertex 7.5 8.44986 3.5
    endloop
  endfacet
  facet normal 0 0 1
    outer loop
      vertex 14.1183 -6.21352 3.5
      vertex 7.5 -8.44986 3.5
      vertex 20.555 -8.44986 3.5
    endloop
  endfacet
  facet normal 0 0 1
    outer loop
      vertex 13.5734 -4.53647 3.5
      vertex 7.5 -8.44986 3.5
      vertex 14.1183 -6.21352 3.5
    endloop
  endfacet
  facet normal 1 -0 0
    outer loop
      vertex 23 -6.5 3.5
      vertex 23 6.5 0
      vertex 23 6.5 3.5
    endloop
  endfacet
  facet normal 1 0 0
    outer loop
      vertex 23 6.5 0
      vertex 23 -6.5 3.5
      vertex 23 -6.5 0
    endloop
  endfacet
  facet normal 0 -1 0
    outer loop
      vertex -21.445 -8.44986 0
      vertex -7.5 -8.44986 3.5
      vertex -21.445 -8.44986 3.5
    endloop
  endfacet
  facet normal 0 -1 -0
    outer loop
      vertex -7.5 -8.44986 3.5
      vertex -21.445 -8.44986 0
      vertex -7.2452 -8.44986 1.56458
    endloop
  endfacet
  facet normal 0 -1 -0
    outer loop
      vertex -7.2452 -8.44986 1.56458
      vertex -21.445 -8.44986 0
      vertex -7.24444 -8.44986 1.55886
    endloop
  endfacet
  facet normal 0 -1 -0
    outer loop
      vertex -7.24444 -8.44986 1.55886
      vertex -21.445 -8.44986 0
      vertex -7.24223 -8.44986 1.55352
    endloop
  endfacet
  facet normal 0 -1 -0
    outer loop
      vertex -7.24223 -8.44986 1.55352
      vertex -21.445 -8.44986 0
      vertex -6.59874 -8.44986 0
    endloop
  endfacet
  facet normal 0 -1 0
    outer loop
      vertex 20.555 -8.44986 0
      vertex 7.5 -8.44986 3.5
      vertex 7.2452 -8.44986 1.56458
    endloop
  endfacet
  facet normal 0 -1 0
    outer loop
      vertex 20.555 -8.44986 0
      vertex 7.2452 -8.44986 1.56458
      vertex 7.24444 -8.44986 1.55886
    endloop
  endfacet
  facet normal 0 -1 0
    outer loop
      vertex 20.555 -8.44986 0
      vertex 7.24444 -8.44986 1.55886
      vertex 6.59874 -8.44986 0
    endloop
  endfacet
  facet normal 0 -1 0
    outer loop
      vertex 7.5 -8.44986 3.5
      vertex 20.555 -8.44986 0
      vertex 20.555 -8.44986 3.5
    endloop
  endfacet
  facet normal 0.222521 0.974928 -0
    outer loop
      vertex 22.247 8.06366 0
      vertex 20.555 8.44986 3.5
      vertex 22.247 8.06366 3.5
    endloop
  endfacet
  facet normal 0.222521 0.974928 0
    outer loop
      vertex 20.555 8.44986 3.5
      vertex 22.247 8.06366 0
      vertex 20.555 8.44986 0
    endloop
  endfacet
  facet normal 0.900969 0.433884 0
    outer loop
      vertex 23 6.5 3.5
      vertex 22.247 8.06366 0
      vertex 22.247 8.06366 3.5
    endloop
  endfacet
  facet normal 0.900969 0.433884 0
    outer loop
      vertex 22.247 8.06366 0
      vertex 23 6.5 3.5
      vertex 23 6.5 0
    endloop
  endfacet
  facet normal 0 1 0
    outer loop
      vertex -7.49925 8.44986 3.49427
      vertex -21.445 8.44986 3.5
      vertex -7.5 8.44986 3.5
    endloop
  endfacet
  facet normal 0 1 0
    outer loop
      vertex -21.445 8.44986 0
      vertex -7.49925 8.44986 3.49427
      vertex -7.24444 8.44986 1.55886
    endloop
  endfacet
  facet normal 0 1 0
    outer loop
      vertex -21.445 8.44986 0
      vertex -7.24444 8.44986 1.55886
      vertex -6.59874 8.44986 0
    endloop
  endfacet
  facet normal 0 1 0
    outer loop
      vertex -7.49925 8.44986 3.49427
      vertex -21.445 8.44986 0
      vertex -21.445 8.44986 3.5
    endloop
  endfacet
  facet normal 0 1 0
    outer loop
      vertex 20.555 8.44986 3.5
      vertex 7.49925 8.44986 3.49427
      vertex 7.5 8.44986 3.5
    endloop
  endfacet
  facet normal 0 1 -0
    outer loop
      vertex 20.555 8.44986 0
      vertex 7.49925 8.44986 3.49427
      vertex 20.555 8.44986 3.5
    endloop
  endfacet
  facet normal 0 1 0
    outer loop
      vertex 7.49925 8.44986 3.49427
      vertex 20.555 8.44986 0
      vertex 7.24444 8.44986 1.55886
    endloop
  endfacet
  facet normal 0 1 0
    outer loop
      vertex 7.24444 8.44986 1.55886
      vertex 20.555 8.44986 0
      vertex 6.59874 8.44986 0
    endloop
  endfacet
  facet normal 0.222521 -0.974928 0
    outer loop
      vertex 20.555 -8.44986 0
      vertex 22.247 -8.06366 3.5
      vertex 20.555 -8.44986 3.5
    endloop
  endfacet
  facet normal 0.222521 -0.974928 0
    outer loop
      vertex 22.247 -8.06366 3.5
      vertex 20.555 -8.44986 0
      vertex 22.247 -8.06366 0
    endloop
  endfacet
  facet normal 0.900969 -0.433884 0
    outer loop
      vertex 22.247 -8.06366 3.5
      vertex 23 -6.5 0
      vertex 23 -6.5 3.5
    endloop
  endfacet
  facet normal 0.900969 -0.433884 0
    outer loop
      vertex 23 -6.5 0
      vertex 22.247 -8.06366 3.5
      vertex 22.247 -8.06366 0
    endloop
  endfacet
  facet normal 0.991445 0 0.130527
    outer loop
      vertex 7.24444 8.5 5.44114
      vertex 7.24444 -8.5 5.44114
      vertex 7.5 -8.5 3.5
    endloop
  endfacet
  facet normal 0.991445 2.48244e-06 0.130527
    outer loop
      vertex 7.24444 8.5 5.44114
      vertex 7.5 8.44986 3.5
      vertex 7.5 8.5 3.5
    endloop
  endfacet
  facet normal 0.991445 0 0.130527
    outer loop
      vertex 7.24444 8.5 5.44114
      vertex 7.5 -8.44986 3.5
      vertex 7.5 8.44986 3.5
    endloop
  endfacet
  facet normal 0.991445 0 0.130527
    outer loop
      vertex 7.5 -8.44986 3.5
      vertex 7.24444 8.5 5.44114
      vertex 7.5 -8.5 3.5
    endloop
  endfacet
  facet normal 1.14567e-06 -1 1.49307e-06
    outer loop
      vertex 5.3033 -8.5 8.8033
      vertex 3.75 -8.5 9.99519
      vertex 6.49519 -8.5 7.25
    endloop
  endfacet
  facet normal 0.608761 0 0.793354
    outer loop
      vertex 3.75 8.5 9.99519
      vertex 5.3033 -8.5 8.8033
      vertex 5.3033 8.5 8.8033
    endloop
  endfacet
  facet normal 0.608761 0 0.793354
    outer loop
      vertex 5.3033 -8.5 8.8033
      vertex 3.75 8.5 9.99519
      vertex 3.75 -8.5 9.99519
    endloop
  endfacet
  facet normal 0 -1 2.54313e-07
    outer loop
      vertex -1.33659 -8.5 7.25
      vertex 0 -8.5 11
      vertex -6.49519 -8.5 7.25
    endloop
  endfacet
  facet normal -3.2276e-08 -1 2.65817e-07
    outer loop
      vertex 0 -8.5 11
      vertex -1.33659 -8.5 7.25
      vertex 0.482146 -8.5 7.47083
    endloop
  endfacet
  facet normal 1.08083e-07 -1 2.84993e-07
    outer loop
      vertex 1.06444 -8.5 7.25
      vertex 0 -8.5 11
      vertex 0.482146 -8.5 7.47083
    endloop
  endfacet
  facet normal 0 -1 2.54313e-07
    outer loop
      vertex 0 -8.5 11
      vertex 1.06444 -8.5 7.25
      vertex 6.49519 -8.5 7.25
    endloop
  endfacet
  facet normal -0.130527 0 0.991445
    outer loop
      vertex -1.94114 8.5 10.7444
      vertex -1.94114 -8.5 10.7444
      vertex 0 -8.5 11
    endloop
  endfacet
  facet normal 4.33709e-08 -1 3.29434e-07
    outer loop
      vertex 1.94114 -8.5 10.7444
      vertex 0 -8.5 11
      vertex 6.49519 -8.5 7.25
    endloop
  endfacet
  facet normal -0.793354 0 0.608761
    outer loop
      vertex -5.3033 8.5 8.8033
      vertex -6.49519 -8.5 7.25
      vertex -5.3033 -8.5 8.8033
    endloop
  endfacet
  facet normal 0.92388 0 0.382683
    outer loop
      vertex 7.24444 8.5 5.44114
      vertex 6.49519 -8.5 7.25
      vertex 7.24444 -8.5 5.44114
    endloop
  endfacet
  facet normal -0.92388 0 0.382683
    outer loop
      vertex -7.24444 8.5 5.44114
      vertex -7.24444 -8.5 5.44114
      vertex -6.49519 -8.5 7.25
    endloop
  endfacet
  facet normal -0.991445 2.48244e-06 0.130527
    outer loop
      vertex -7.5 8.5 3.5
      vertex -7.5 8.44986 3.5
      vertex -7.24444 8.5 5.44114
    endloop
  endfacet
  facet normal -0.991445 0 0.130527
    outer loop
      vertex -7.5 -8.44986 3.5
      vertex -7.24444 8.5 5.44114
      vertex -7.5 8.44986 3.5
    endloop
  endfacet
  facet normal -0.991445 0 0.130527
    outer loop
      vertex -7.24444 8.5 5.44114
      vertex -7.5 -8.44986 3.5
      vertex -7.5 -8.5 3.5
    endloop
  endfacet
  facet normal 0 1 -0
    outer loop
      vertex 0.482146 8.5 7.47083
      vertex 0 8.5 11
      vertex 1.94114 8.5 10.7444
    endloop
  endfacet
  facet normal 0 1 -0
    outer loop
      vertex 2.27226 8.5 6.79193
      vertex 1.94114 8.5 10.7444
      vertex 3.75 8.5 9.99519
    endloop
  endfacet
  facet normal 0 1 0
    outer loop
      vertex -1.41842 8.5 7.24006
      vertex 0 8.5 11
      vertex 0.482146 8.5 7.47083
    endloop
  endfacet
  facet normal 0 1 0
    outer loop
      vertex 2.27226 8.5 6.79193
      vertex 3.75 8.5 9.99519
      vertex 5.3033 8.5 8.8033
    endloop
  endfacet
  facet normal 0 1 0
    outer loop
      vertex 0 8.5 11
      vertex -1.41842 8.5 7.24006
      vertex -1.94114 8.5 10.7444
    endloop
  endfacet
  facet normal 0 1 0
    outer loop
      vertex -1.94114 8.5 10.7444
      vertex -1.41842 8.5 7.24006
      vertex -3.75 8.5 9.99519
    endloop
  endfacet
  facet normal 0 1 0
    outer loop
      vertex 3.54182 8.5 5.35889
      vertex 5.3033 8.5 8.8033
      vertex 6.49519 8.5 7.25
    endloop
  endfacet
  facet normal 0 1 0
    outer loop
      vertex 1.94114 8.5 10.7444
      vertex 2.27226 8.5 6.79193
      vertex 0.482146 8.5 7.47083
    endloop
  endfacet
  facet normal 0 1 0
    outer loop
      vertex 3.54182 8.5 5.35889
      vertex 6.49519 8.5 7.25
      vertex 7.24444 8.5 5.44114
    endloop
  endfacet
  facet normal 0 1 0
    outer loop
      vertex 5.3033 8.5 8.8033
      vertex 3.54182 8.5 5.35889
      vertex 2.27226 8.5 6.79193
    endloop
  endfacet
  facet normal 0 1 0
    outer loop
      vertex 7.24444 8.5 5.44114
      vertex 3.61513 8.5 5.06147
      vertex 3.54182 8.5 5.35889
    endloop
  endfacet
  facet normal 0 1 0
    outer loop
      vertex 7.24444 8.5 5.44114
      vertex 4 8.5 3.5
      vertex 3.61513 8.5 5.06147
    endloop
  endfacet
  facet normal 0 1 0
    outer loop
      vertex 7.5 8.5 3.5
      vertex 4 8.5 3.5
      vertex 7.24444 8.5 5.44114
    endloop
  endfacet
  facet normal 0 1 -0
    outer loop
      vertex 7.24444 8.5 1.55886
      vertex 4 8.5 3.5
      vertex 7.5 8.5 3.5
    endloop
  endfacet
  facet normal 0 1 0
    outer loop
      vertex 4 8.5 0
      vertex 7.24444 8.5 1.55886
      vertex 6.59874 8.5 0
    endloop
  endfacet
  facet normal 0 1 0
    outer loop
      vertex 7.24444 8.5 1.55886
      vertex 4 8.5 0
      vertex 4 8.5 3.5
    endloop
  endfacet
  facet normal 0 1 -0
    outer loop
      vertex -2.99404 8.5 6.15249
      vertex -3.75 8.5 9.99519
      vertex -1.41842 8.5 7.24006
    endloop
  endfacet
  facet normal 0 1 0
    outer loop
      vertex -3.75 8.5 9.99519
      vertex -2.99404 8.5 6.15249
      vertex -5.3033 8.5 8.8033
    endloop
  endfacet
  facet normal 0 1 0
    outer loop
      vertex -5.3033 8.5 8.8033
      vertex -2.99404 8.5 6.15249
      vertex -6.49519 8.5 7.25
    endloop
  endfacet
  facet normal 0 1 -0
    outer loop
      vertex -3.88377 8.5 4.45726
      vertex -6.49519 8.5 7.25
      vertex -2.99404 8.5 6.15249
    endloop
  endfacet
  facet normal 0 1 0
    outer loop
      vertex -6.49519 8.5 7.25
      vertex -3.88377 8.5 4.45726
      vertex -7.24444 8.5 5.44114
    endloop
  endfacet
  facet normal 0 1 0
    outer loop
      vertex -4 8.5 3.5
      vertex -3.88377 8.5 4.45726
      vertex -3.88377 8.5 3.5
    endloop
  endfacet
  facet normal 0 1 0
    outer loop
      vertex -7.5 8.5 3.5
      vertex -3.88377 8.5 4.45726
      vertex -4 8.5 3.5
    endloop
  endfacet
  facet normal 0 1 0
    outer loop
      vertex -3.88377 8.5 4.45726
      vertex -7.5 8.5 3.5
      vertex -7.24444 8.5 5.44114
    endloop
  endfacet
  facet normal 0 1 0
    outer loop
      vertex -4 8.5 3.5
      vertex -7.24444 8.5 1.55886
      vertex -7.5 8.5 3.5
    endloop
  endfacet
  facet normal 0 1 -0
    outer loop
      vertex -4 8.5 0
      vertex -7.24444 8.5 1.55886
      vertex -4 8.5 3.5
    endloop
  endfacet
  facet normal 0 1 0
    outer loop
      vertex -7.24444 8.5 1.55886
      vertex -4 8.5 0
      vertex -6.59874 8.5 0
    endloop
  endfacet
  facet normal 0.130526 5.56186e-08 0.991445
    outer loop
      vertex 0 8.5 11
      vertex 0 -8.5 11
      vertex 1.94114 8.5 10.7444
    endloop
  endfacet
  facet normal 2.45648e-07 -1 5.93046e-07
    outer loop
      vertex 3.75 -8.5 9.99519
      vertex 1.94114 -8.5 10.7444
      vertex 6.49519 -8.5 7.25
    endloop
  endfacet
  facet normal 0.793354 0 0.608761
    outer loop
      vertex 5.3033 8.5 8.8033
      vertex 5.3033 -8.5 8.8033
      vertex 6.49519 -8.5 7.25
    endloop
  endfacet
  facet normal 0.923879 0 -0.382684
    outer loop
      vertex 7.24444 8.44986 1.55886
      vertex 6.59874 8.5 0
      vertex 7.24444 8.5 1.55886
    endloop
  endfacet
  facet normal 0.923879 0 -0.382684
    outer loop
      vertex 6.59874 8.5 0
      vertex 7.24444 8.44986 1.55886
      vertex 6.59874 8.44986 0
    endloop
  endfacet
  facet normal 0.923879 0 -0.382684
    outer loop
      vertex 7.24444 -8.5 1.55886
      vertex 6.59874 -8.44986 0
      vertex 7.24444 -8.44986 1.55886
    endloop
  endfacet
  facet normal 0.923879 0 -0.382684
    outer loop
      vertex 6.59874 -8.44986 0
      vertex 7.24444 -8.5 1.55886
      vertex 6.59874 -8.5 0
    endloop
  endfacet
  facet normal -2.45648e-07 -1 5.93046e-07
    outer loop
      vertex -3.75 -8.5 9.99519
      vertex -6.49519 -8.5 7.25
      vertex -1.94114 -8.5 10.7444
    endloop
  endfacet
  facet normal -4.33709e-08 -1 3.29434e-07
    outer loop
      vertex -1.94114 -8.5 10.7444
      vertex -6.49519 -8.5 7.25
      vertex 0 -8.5 11
    endloop
  endfacet
  facet normal -0.923879 2.1468e-08 0.382684
    outer loop
      vertex -6.49519 8.5 7.25
      vertex -7.24444 8.5 5.44114
      vertex -6.49519 -8.5 7.25
    endloop
  endfacet
  facet normal -0.793354 3.41506e-08 0.608761
    outer loop
      vertex -6.49519 8.5 7.25
      vertex -6.49519 -8.5 7.25
      vertex -5.3033 8.5 8.8033
    endloop
  endfacet
  facet normal -0.991445 0 0.130527
    outer loop
      vertex -7.24444 8.5 5.44114
      vertex -7.5 -8.5 3.5
      vertex -7.24444 -8.5 5.44114
    endloop
  endfacet
  facet normal 0 -1 0
    outer loop
      vertex 2.27226 -8.5 6.79193
      vertex 6.49519 -8.5 7.25
      vertex 1.06444 -8.5 7.25
    endloop
  endfacet
  facet normal 0 -1 0
    outer loop
      vertex 3.54182 -8.5 5.35889
      vertex 6.49519 -8.5 7.25
      vertex 2.27226 -8.5 6.79193
    endloop
  endfacet
  facet normal 0 -1 -0
    outer loop
      vertex 6.49519 -8.5 7.25
      vertex 3.54182 -8.5 5.35889
      vertex 7.24444 -8.5 5.44114
    endloop
  endfacet
  facet normal 0 -1 0
    outer loop
      vertex 3.92669 -8.5 3.79742
      vertex 7.24444 -8.5 5.44114
      vertex 3.54182 -8.5 5.35889
    endloop
  endfacet
  facet normal 0 -1 0
    outer loop
      vertex 7.5 -8.5 3.5
      vertex 3.92669 -8.5 3.79742
      vertex 4 -8.5 3.5
    endloop
  endfacet
  facet normal 0 -1 0
    outer loop
      vertex 3.92669 -8.5 3.79742
      vertex 7.5 -8.5 3.5
      vertex 7.24444 -8.5 5.44114
    endloop
  endfacet
  facet normal 0 -1 0
    outer loop
      vertex 4 -8.5 3.5
      vertex 7.24444 -8.5 1.55886
      vertex 7.5 -8.5 3.5
    endloop
  endfacet
  facet normal 0 -1 0
    outer loop
      vertex 4 -8.5 0
      vertex 7.24444 -8.5 1.55886
      vertex 4 -8.5 3.5
    endloop
  endfacet
  facet normal 0 -1 0
    outer loop
      vertex 7.24444 -8.5 1.55886
      vertex 4 -8.5 0
      vertex 6.59874 -8.5 0
    endloop
  endfacet
  facet normal 0 -1 0
    outer loop
      vertex -7.24444 -8.5 1.55886
      vertex -4 -8.5 3.5
      vertex -7.5 -8.5 3.5
    endloop
  endfacet
  facet normal 0 -1 0
    outer loop
      vertex -4 -8.5 0
      vertex -7.24444 -8.5 1.55886
      vertex -6.59874 -8.5 0
    endloop
  endfacet
  facet normal 0 -1 0
    outer loop
      vertex -7.24444 -8.5 1.55886
      vertex -4 -8.5 0
      vertex -4 -8.5 3.5
    endloop
  endfacet
  facet normal 0 -1 0
    outer loop
      vertex -6.49519 -8.5 7.25
      vertex -1.41842 -8.5 7.24006
      vertex -1.33659 -8.5 7.25
    endloop
  endfacet
  facet normal 0 -1 0
    outer loop
      vertex -6.49519 -8.5 7.25
      vertex -2.99404 -8.5 6.15249
      vertex -1.41842 -8.5 7.24006
    endloop
  endfacet
  facet normal 0 -1 0
    outer loop
      vertex -3.88377 -8.5 4.45726
      vertex -6.49519 -8.5 7.25
      vertex -7.24444 -8.5 5.44114
    endloop
  endfacet
  facet normal 0 -1 0
    outer loop
      vertex -6.49519 -8.5 7.25
      vertex -3.88377 -8.5 4.45726
      vertex -2.99404 -8.5 6.15249
    endloop
  endfacet
  facet normal 0 -1 0
    outer loop
      vertex -7.5 -8.5 3.5
      vertex -3.88377 -8.5 4.45726
      vertex -7.24444 -8.5 5.44114
    endloop
  endfacet
  facet normal 0 -1 0
    outer loop
      vertex -4 -8.5 3.5
      vertex -3.88377 -8.5 4.45726
      vertex -7.5 -8.5 3.5
    endloop
  endfacet
  facet normal 0 -1 -0
    outer loop
      vertex -3.88377 -8.5 4.45726
      vertex -4 -8.5 3.5
      vertex -3.88377 -8.5 3.5
    endloop
  endfacet
  facet normal -0.991443 0 -0.130541
    outer loop
      vertex -7.49925 8.44986 3.49427
      vertex -7.5 8.44986 3.5
      vertex -7.5 8.5 3.5
    endloop
  endfacet
  facet normal -0.991445 -1.36892e-06 -0.130527
    outer loop
      vertex -7.5 -8.5 3.5
      vertex -7.2452 -8.44986 1.56458
      vertex -7.24444 -8.5 1.55886
    endloop
  endfacet
  facet normal -0.991445 0 -0.130527
    outer loop
      vertex -7.2452 -8.44986 1.56458
      vertex -7.5 -8.5 3.5
      vertex -7.5 -8.44986 3.5
    endloop
  endfacet
  facet normal 0.991445 -1.6719e-06 -0.130527
    outer loop
      vertex 7.49925 8.44986 3.49427
      vertex 7.24444 8.5 1.55886
      vertex 7.5 8.5 3.5
    endloop
  endfacet
  facet normal 0.991445 0 -0.130527
    outer loop
      vertex 7.24444 8.5 1.55886
      vertex 7.49925 8.44986 3.49427
      vertex 7.24444 8.44986 1.55886
    endloop
  endfacet
  facet normal 0.991443 0 -0.130538
    outer loop
      vertex 7.2452 -8.44986 1.56458
      vertex 7.24444 -8.5 1.55886
      vertex 7.24444 -8.44986 1.55886
    endloop
  endfacet
  facet normal 0.991445 0 -0.130527
    outer loop
      vertex 7.5 -8.5 3.5
      vertex 7.2452 -8.44986 1.56458
      vertex 7.5 -8.44986 3.5
    endloop
  endfacet
  facet normal 0.991445 -1.36892e-06 -0.130527
    outer loop
      vertex 7.2452 -8.44986 1.56458
      vertex 7.5 -8.5 3.5
      vertex 7.24444 -8.5 1.55886
    endloop
  endfacet
  facet normal 0.991443 0 -0.130541
    outer loop
      vertex 7.5 8.44986 3.5
      vertex 7.49925 8.44986 3.49427
      vertex 7.5 8.5 3.5
    endloop
  endfacet
  facet normal -0.130526 5.56186e-08 0.991445
    outer loop
      vertex 0 8.5 11
      vertex -1.94114 8.5 10.7444
      vertex 0 -8.5 11
    endloop
  endfacet
  facet normal 0.382683 0 0.92388
    outer loop
      vertex 1.94114 8.5 10.7444
      vertex 3.75 -8.5 9.99519
      vertex 3.75 8.5 9.99519
    endloop
  endfacet
  facet normal 0.382683 0 0.92388
    outer loop
      vertex 3.75 -8.5 9.99519
      vertex 1.94114 8.5 10.7444
      vertex 1.94114 -8.5 10.7444
    endloop
  endfacet
  facet normal 0.130527 0 0.991445
    outer loop
      vertex 1.94114 8.5 10.7444
      vertex 0 -8.5 11
      vertex 1.94114 -8.5 10.7444
    endloop
  endfacet
  facet normal 0.793354 3.41506e-08 0.608761
    outer loop
      vertex 6.49519 8.5 7.25
      vertex 5.3033 8.5 8.8033
      vertex 6.49519 -8.5 7.25
    endloop
  endfacet
  facet normal 0.923879 2.1468e-08 0.382684
    outer loop
      vertex 6.49519 8.5 7.25
      vertex 6.49519 -8.5 7.25
      vertex 7.24444 8.5 5.44114
    endloop
  endfacet
  facet normal -0.382684 0 0.923879
    outer loop
      vertex -3.75 8.5 9.99519
      vertex -1.94114 -8.5 10.7444
      vertex -1.94114 8.5 10.7444
    endloop
  endfacet
  facet normal -0.382684 0 0.923879
    outer loop
      vertex -1.94114 -8.5 10.7444
      vertex -3.75 8.5 9.99519
      vertex -3.75 -8.5 9.99519
    endloop
  endfacet
  facet normal -0.923879 0 -0.382684
    outer loop
      vertex -6.59874 8.44986 0
      vertex -7.24444 8.5 1.55886
      vertex -6.59874 8.5 0
    endloop
  endfacet
  facet normal -0.923879 -0 -0.382684
    outer loop
      vertex -7.24444 8.5 1.55886
      vertex -6.59874 8.44986 0
      vertex -7.24444 8.44986 1.55886
    endloop
  endfacet
  facet normal -0.923875 0 -0.382695
    outer loop
      vertex -7.24223 -8.44986 1.55352
      vertex -7.24444 -8.5 1.55886
      vertex -7.24444 -8.44986 1.55886
    endloop
  endfacet
  facet normal -0.991445 0 -0.130527
    outer loop
      vertex -7.49925 8.44986 3.49427
      vertex -7.24444 8.5 1.55886
      vertex -7.24444 8.44986 1.55886
    endloop
  endfacet
  facet normal -0.991445 -1.6719e-06 -0.130527
    outer loop
      vertex -7.24444 8.5 1.55886
      vertex -7.49925 8.44986 3.49427
      vertex -7.5 8.5 3.5
    endloop
  endfacet
  facet normal -0.991443 0 -0.130538
    outer loop
      vertex -7.24444 -8.5 1.55886
      vertex -7.2452 -8.44986 1.56458
      vertex -7.24444 -8.44986 1.55886
    endloop
  endfacet
  facet normal -0.923879 0 -0.382684
    outer loop
      vertex -6.59874 -8.5 0
      vertex -7.24223 -8.44986 1.55352
      vertex -6.59874 -8.44986 0
    endloop
  endfacet
  facet normal -0.923879 1.36458e-06 -0.382684
    outer loop
      vertex -7.24223 -8.44986 1.55352
      vertex -6.59874 -8.5 0
      vertex -7.24444 -8.5 1.55886
    endloop
  endfacet
  facet normal -1.14567e-06 -1 1.49307e-06
    outer loop
      vertex -5.3033 -8.5 8.8033
      vertex -6.49519 -8.5 7.25
      vertex -3.75 -8.5 9.99519
    endloop
  endfacet
  facet normal -0.608761 0 0.793354
    outer loop
      vertex -5.3033 8.5 8.8033
      vertex -3.75 -8.5 9.99519
      vertex -3.75 8.5 9.99519
    endloop
  endfacet
  facet normal -0.608761 0 0.793354
    outer loop
      vertex -3.75 -8.5 9.99519
      vertex -5.3033 8.5 8.8033
      vertex -5.3033 -8.5 8.8033
    endloop
  endfacet
  facet normal 0.587785 -0.809017 0
    outer loop
      vertex 13.5734 5.46352 0
      vertex 15 6.5 3.5
      vertex 13.5734 5.46352 3.5
    endloop
  endfacet
  facet normal 0.587785 -0.809017 0
    outer loop
      vertex 15 6.5 3.5
      vertex 13.5734 5.46352 0
      vertex 15 6.5 0
    endloop
  endfacet
  facet normal 0.951057 0.309017 0
    outer loop
      vertex 14.1183 3.78647 3.5
      vertex 13.5734 5.46352 0
      vertex 13.5734 5.46352 3.5
    endloop
  endfacet
  facet normal 0.951057 0.309017 0
    outer loop
      vertex 13.5734 5.46352 0
      vertex 14.1183 3.78647 3.5
      vertex 14.1183 3.78647 0
    endloop
  endfacet
  facet normal 0 1 -0
    outer loop
      vertex 15.8817 3.78647 0
      vertex 14.1183 3.78647 3.5
      vertex 15.8817 3.78647 3.5
    endloop
  endfacet
  facet normal 0 1 0
    outer loop
      vertex 14.1183 3.78647 3.5
      vertex 15.8817 3.78647 0
      vertex 14.1183 3.78647 0
    endloop
  endfacet
  facet normal -0.587786 -0.809017 0
    outer loop
      vertex 15 6.5 0
      vertex 16.4266 5.46352 3.5
      vertex 15 6.5 3.5
    endloop
  endfacet
  facet normal -0.587786 -0.809017 -0
    outer loop
      vertex 16.4266 5.46352 3.5
      vertex 15 6.5 0
      vertex 16.4266 5.46352 0
    endloop
  endfacet
  facet normal -0.951057 0.309017 0
    outer loop
      vertex 15.8817 3.78647 0
      vertex 16.4266 5.46352 3.5
      vertex 16.4266 5.46352 0
    endloop
  endfacet
  facet normal -0.951057 0.309017 0
    outer loop
      vertex 16.4266 5.46352 3.5
      vertex 15.8817 3.78647 0
      vertex 15.8817 3.78647 3.5
    endloop
  endfacet
  facet normal 0.587785 -0.809017 0
    outer loop
      vertex 13.5734 -4.53647 0
      vertex 15 -3.5 3.5
      vertex 13.5734 -4.53647 3.5
    endloop
  endfacet
  facet normal 0.587785 -0.809017 0
    outer loop
      vertex 15 -3.5 3.5
      vertex 13.5734 -4.53647 0
      vertex 15 -3.5 0
    endloop
  endfacet
  facet normal 0.951057 0.309017 0
    outer loop
      vertex 14.1183 -6.21352 3.5
      vertex 13.5734 -4.53647 0
      vertex 13.5734 -4.53647 3.5
    endloop
  endfacet
  facet normal 0.951057 0.309017 0
    outer loop
      vertex 13.5734 -4.53647 0
      vertex 14.1183 -6.21352 3.5
      vertex 14.1183 -6.21352 0
    endloop
  endfacet
  facet normal 0 1 -0
    outer loop
      vertex 15.8817 -6.21352 0
      vertex 14.1183 -6.21352 3.5
      vertex 15.8817 -6.21352 3.5
    endloop
  endfacet
  facet normal 0 1 0
    outer loop
      vertex 14.1183 -6.21352 3.5
      vertex 15.8817 -6.21352 0
      vertex 14.1183 -6.21352 0
    endloop
  endfacet
  facet normal -0.587785 -0.809017 0
    outer loop
      vertex 15 -3.5 0
      vertex 16.4266 -4.53647 3.5
      vertex 15 -3.5 3.5
    endloop
  endfacet
  facet normal -0.587785 -0.809017 -0
    outer loop
      vertex 16.4266 -4.53647 3.5
      vertex 15 -3.5 0
      vertex 16.4266 -4.53647 0
    endloop
  endfacet
  facet normal -0.951057 0.309017 0
    outer loop
      vertex 15.8817 -6.21352 0
      vertex 16.4266 -4.53647 3.5
      vertex 16.4266 -4.53647 0
    endloop
  endfacet
  facet normal -0.951057 0.309017 0
    outer loop
      vertex 16.4266 -4.53647 3.5
      vertex 15.8817 -6.21352 0
      vertex 15.8817 -6.21352 3.5
    endloop
  endfacet
  facet normal 0.587786 -0.809017 0
    outer loop
      vertex -16.4266 5.46352 0
      vertex -15 6.5 3.5
      vertex -16.4266 5.46352 3.5
    endloop
  endfacet
  facet normal 0.587786 -0.809017 0
    outer loop
      vertex -15 6.5 3.5
      vertex -16.4266 5.46352 0
      vertex -15 6.5 0
    endloop
  endfacet
  facet normal 0.951057 0.309017 0
    outer loop
      vertex -15.8817 3.78647 3.5
      vertex -16.4266 5.46352 0
      vertex -16.4266 5.46352 3.5
    endloop
  endfacet
  facet normal 0.951057 0.309017 0
    outer loop
      vertex -16.4266 5.46352 0
      vertex -15.8817 3.78647 3.5
      vertex -15.8817 3.78647 0
    endloop
  endfacet
  facet normal 0 1 -0
    outer loop
      vertex -14.1183 3.78647 0
      vertex -15.8817 3.78647 3.5
      vertex -14.1183 3.78647 3.5
    endloop
  endfacet
  facet normal 0 1 0
    outer loop
      vertex -15.8817 3.78647 3.5
      vertex -14.1183 3.78647 0
      vertex -15.8817 3.78647 0
    endloop
  endfacet
  facet normal -0.587785 -0.809017 0
    outer loop
      vertex -15 6.5 0
      vertex -13.5734 5.46352 3.5
      vertex -15 6.5 3.5
    endloop
  endfacet
  facet normal -0.587785 -0.809017 -0
    outer loop
      vertex -13.5734 5.46352 3.5
      vertex -15 6.5 0
      vertex -13.5734 5.46352 0
    endloop
  endfacet
  facet normal -0.951057 0.309017 0
    outer loop
      vertex -14.1183 3.78647 0
      vertex -13.5734 5.46352 3.5
      vertex -13.5734 5.46352 0
    endloop
  endfacet
  facet normal -0.951057 0.309017 0
    outer loop
      vertex -13.5734 5.46352 3.5
      vertex -14.1183 3.78647 0
      vertex -14.1183 3.78647 3.5
    endloop
  endfacet
  facet normal 0.587785 -0.809017 0
    outer loop
      vertex -16.4266 -4.53647 0
      vertex -15 -3.5 3.5
      vertex -16.4266 -4.53647 3.5
    endloop
  endfacet
  facet normal 0.587785 -0.809017 0
    outer loop
      vertex -15 -3.5 3.5
      vertex -16.4266 -4.53647 0
      vertex -15 -3.5 0
    endloop
  endfacet
  facet normal 0.951057 0.309017 0
    outer loop
      vertex -15.8817 -6.21352 3.5
      vertex -16.4266 -4.53647 0
      vertex -16.4266 -4.53647 3.5
    endloop
  endfacet
  facet normal 0.951057 0.309017 0
    outer loop
      vertex -16.4266 -4.53647 0
      vertex -15.8817 -6.21352 3.5
      vertex -15.8817 -6.21352 0
    endloop
  endfacet
  facet normal -0.951057 0.309017 0
    outer loop
      vertex -14.1183 -6.21352 0
      vertex -13.5734 -4.53647 3.5
      vertex -13.5734 -4.53647 0
    endloop
  endfacet
  facet normal -0.951057 0.309017 0
    outer loop
      vertex -13.5734 -4.53647 3.5
      vertex -14.1183 -6.21352 0
      vertex -14.1183 -6.21352 3.5
    endloop
  endfacet
  facet normal 0 1 -0
    outer loop
      vertex -14.1183 -6.21352 0
      vertex -15.8817 -6.21352 3.5
      vertex -14.1183 -6.21352 3.5
    endloop
  endfacet
  facet normal 0 1 0
    outer loop
      vertex -15.8817 -6.21352 3.5
      vertex -14.1183 -6.21352 0
      vertex -15.8817 -6.21352 0
    endloop
  endfacet
  facet normal -0.587785 -0.809017 0
    outer loop
      vertex -15 -3.5 0
      vertex -13.5734 -4.53647 3.5
      vertex -15 -3.5 3.5
    endloop
  endfacet
  facet normal -0.587785 -0.809017 -0
    outer loop
      vertex -13.5734 -4.53647 3.5
      vertex -15 -3.5 0
      vertex -13.5734 -4.53647 0
    endloop
  endfacet
  facet normal -0.970942 -3.54355e-09 -0.239316
    outer loop
      vertex 3.54182 -8.5 5.35889
      vertex 3.61513 8.5 5.06147
      vertex 3.92669 -8.5 3.79742
    endloop
  endfacet
  facet normal -0.970942 0 -0.239316
    outer loop
      vertex 3.61513 8.5 5.06147
      vertex 3.54182 -8.5 5.35889
      vertex 3.54182 8.5 5.35889
    endloop
  endfacet
  facet normal -0.748511 0 -0.663123
    outer loop
      vertex 3.54182 -8.5 5.35889
      vertex 2.27226 8.5 6.79193
      vertex 3.54182 8.5 5.35889
    endloop
  endfacet
  facet normal -0.748511 -0 -0.663123
    outer loop
      vertex 2.27226 8.5 6.79193
      vertex 3.54182 -8.5 5.35889
      vertex 2.27226 -8.5 6.79193
    endloop
  endfacet
  facet normal -0.970942 -1.36171e-08 -0.239316
    outer loop
      vertex 3.92669 -8.5 3.79742
      vertex 4 8.5 3.5
      vertex 4 -8.5 3.5
    endloop
  endfacet
  facet normal -0.970942 -1.45669e-08 -0.239316
    outer loop
      vertex 4 8.5 3.5
      vertex 3.92669 -8.5 3.79742
      vertex 3.61513 8.5 5.06147
    endloop
  endfacet
  facet normal 0.568065 0 -0.822984
    outer loop
      vertex -2.99404 -8.5 6.15249
      vertex -1.41842 8.5 7.24006
      vertex -1.41842 -8.5 7.24006
    endloop
  endfacet
  facet normal 0.568065 0 -0.822984
    outer loop
      vertex -1.41842 8.5 7.24006
      vertex -2.99404 -8.5 6.15249
      vertex -2.99404 8.5 6.15249
    endloop
  endfacet
  facet normal -0.354605 0 -0.935016
    outer loop
      vertex 1.06444 -8.5 7.25
      vertex 2.27226 8.5 6.79193
      vertex 2.27226 -8.5 6.79193
    endloop
  endfacet
  facet normal -0.354605 -0 -0.935016
    outer loop
      vertex 0.482146 8.5 7.47083
      vertex 1.06444 -8.5 7.25
      vertex 0.482146 -8.5 7.47083
    endloop
  endfacet
  facet normal -0.354605 1.51771e-10 -0.935016
    outer loop
      vertex 1.06444 -8.5 7.25
      vertex 0.482146 8.5 7.47083
      vertex 2.27226 8.5 6.79193
    endloop
  endfacet
  facet normal 0.120537 0 -0.992709
    outer loop
      vertex -1.33659 -8.5 7.25
      vertex 0.482146 8.5 7.47083
      vertex 0.482146 -8.5 7.47083
    endloop
  endfacet
  facet normal 0.120537 0 -0.992709
    outer loop
      vertex -1.41842 8.5 7.24006
      vertex -1.33659 -8.5 7.25
      vertex -1.41842 -8.5 7.24006
    endloop
  endfacet
  facet normal 0.120537 -3.56735e-10 -0.992709
    outer loop
      vertex -1.33659 -8.5 7.25
      vertex -1.41842 8.5 7.24006
      vertex 0.482146 8.5 7.47083
    endloop
  endfacet
  facet normal 0.885456 0 -0.464723
    outer loop
      vertex -2.99404 -8.5 6.15249
      vertex -3.88377 8.5 4.45726
      vertex -2.99404 8.5 6.15249
    endloop
  endfacet
  facet normal 0.885456 0 -0.464723
    outer loop
      vertex -3.88377 8.5 4.45726
      vertex -2.99404 -8.5 6.15249
      vertex -3.88377 -8.5 4.45726
    endloop
  endfacet
  facet normal 1 -0 0
    outer loop
      vertex -3.88377 -8.5 4.45726
      vertex -3.88377 8.5 3.5
      vertex -3.88377 8.5 4.45726
    endloop
  endfacet
  facet normal 1 0 0
    outer loop
      vertex -3.88377 8.5 3.5
      vertex -3.88377 -8.5 4.45726
      vertex -3.88377 -8.5 3.5
    endloop
  endfacet
  facet normal 1 -0 0
    outer loop
      vertex -4 -8.5 3.5
      vertex -4 8.5 0
      vertex -4 8.5 3.5
    endloop
  endfacet
  facet normal 1 0 0
    outer loop
      vertex -4 8.5 0
      vertex -4 -8.5 3.5
      vertex -4 -8.5 0
    endloop
  endfacet
  facet normal 0 0 -1
    outer loop
      vertex -4 -8.5 3.5
      vertex -3.88377 8.5 3.5
      vertex -3.88377 -8.5 3.5
    endloop
  endfacet
  facet normal -0 0 -1
    outer loop
      vertex -3.88377 8.5 3.5
      vertex -4 -8.5 3.5
      vertex -4 8.5 3.5
    endloop
  endfacet
  facet normal -1 0 0
    outer loop
      vertex 4 -8.5 0
      vertex 4 8.5 3.5
      vertex 4 8.5 0
    endloop
  endfacet
  facet normal -1 -0 0
    outer loop
      vertex 4 8.5 3.5
      vertex 4 -8.5 0
      vertex 4 -8.5 3.5
    endloop
  endfacet
endsolid OpenSCAD_Model
